<?xml version="1.0" encoding="utf-8"?>
<!-- Generator: Adobe Illustrator 16.0.0, SVG Export Plug-In . SVG Version: 6.00 Build 0)  -->
<!DOCTYPE svg PUBLIC "-//W3C//DTD SVG 1.1//EN" "http://www.w3.org/Graphics/SVG/1.1/DTD/svg11.dtd">
<svg version="1.1" id="Layer_1" xmlns="http://www.w3.org/2000/svg" xmlns:xlink="http://www.w3.org/1999/xlink" x="0px" y="0px"
	 width="145px" height="@magic-number * 2" viewBox="0 0 145 48" enable-background="new 0 0 145 48" xml:space="preserve">
<g>
	<path fill="#FFFFFF" d="M40.821,45.225c0,1.727-0.731,2.063-1.929,2.063h-5.65c-1.197,0-2.193-0.469-2.926-1.465L10.505,19.429
		h-0.132V45.29c0,1.462-0.666,1.996-1.995,1.996H2.195C0.665,47.286,0,46.95,0,45.355V3.206c0-1.728,0.797-2.06,2.195-2.06H7.78
		c1.327,0,1.994,0.4,2.725,1.396l19.811,26.593h0.134V3.073c0-1.461,0.731-1.927,2.062-1.927h6.449c1.728,0,1.86,0.93,1.86,2.06
		V45.225z"/>
	<path fill="#FFFFFF" d="M62.011,45.605c0,0.797-0.531,1.527-1.463,1.527h-7.646c-0.996,0-1.461-0.73-1.461-1.462V2.525
		c0-0.798,0.532-1.527,1.461-1.527h7.646c0.999,0,1.463,0.729,1.463,1.462V45.605z"/>
	<path fill="#FFFFFF" d="M106.689,4.918l-1.931,5.585c-0.262,0.667-0.528,0.997-0.993,0.997c-0.268,0-0.533-0.133-0.865-0.266
		c-3.523-1.658-6.25-2.259-9.373-2.259c-6.916,0-11.368,5.319-11.368,15.024c0,10.508,5.052,15.024,11.567,15.024
		c3.123,0,5.852-0.594,8.976-1.859c0.397-0.135,0.731-0.268,0.997-0.268c0.598,0,0.93,0.268,1.195,1.064l1.662,4.921
		c0.133,0.397,0.198,0.729,0.198,1.062c0,0.668-0.265,1.131-1.194,1.463C100.973,47.135,97.182,48,92.064,48
		c-14.098,0-21.208-9.377-21.208-23.667C70.857,9.973,79.564,0,92.928,0c4.787,0,8.844,0.931,12.697,2.66
		c0.934,0.399,1.266,0.863,1.266,1.329C106.891,4.254,106.824,4.585,106.689,4.918"/>
	<path fill="#FFFFFF" d="M142.887,0.997c1.33,0,1.729,0.666,1.661,1.529l-0.599,5.385c-0.133,1.396-0.996,1.664-2.592,1.664h-16.09
		v9.901h15.092c1.465,0,1.994,0.733,1.994,1.796v4.853c0,1.333-0.662,1.928-1.926,1.928h-15.16v10.51h17.351
		c1.198,0,1.93,0.527,1.93,1.793v4.92c0,1.264-0.599,1.859-1.86,1.859h-25.797c-1.529,0-2.19-0.398-2.19-2.063V2.857
		c0-1.129,0.597-1.86,1.728-1.86H142.887z"/>
</g>
</svg>
